<svg width="64" height="64" viewBox="0 0 64 64" fill="none" xmlns="http://www.w3.org/2000/svg">
<g clip-path="url(#clip0_1_939)">
<path d="M5.38979 34.6975C5.38979 33.9246 5.37505 33.2761 5.33334 32.6975H6.79589L6.86457 33.6906H6.90533C7.23616 33.1657 7.84357 32.5448 8.97435 32.5448C9.85709 32.5448 10.5463 33.0434 10.8358 33.7872H10.864C11.0995 33.4144 11.3748 33.1397 11.6912 32.9459C12.0635 32.684 12.4915 32.5448 13.044 32.5448C14.1598 32.5448 15.2896 33.3037 15.2896 35.4564V39.4135H13.6351V35.7035C13.6351 34.5869 13.2494 33.9246 12.4369 33.9246C11.8565 33.9246 11.4281 34.3388 11.25 34.8217C11.2086 34.987 11.1669 35.1936 11.1669 35.3859V39.4135H9.51152V35.5245C9.51152 34.5869 9.13961 33.9246 8.35377 33.9246C7.71908 33.9246 7.29229 34.421 7.14052 34.8891C7.07185 35.056 7.04268 35.2485 7.04268 35.4417V39.4135H5.38979V34.6975Z" fill="#003A70"/>
<path d="M20.0819 36.1321C18.8818 36.1039 17.7378 36.3651 17.7378 37.3864C17.7378 38.0475 18.1655 38.352 18.7033 38.352C19.3779 38.352 19.8755 37.9107 20.0257 37.4281C20.0674 37.3043 20.0819 37.1657 20.0819 37.0559V36.1321ZM21.7363 37.8004C21.7363 38.4068 21.7642 38.9976 21.8338 39.4134H20.3026L20.1925 38.6684H20.1496C19.7366 39.1927 19.0335 39.5646 18.1655 39.5646C16.8134 39.5646 16.0555 38.5875 16.0555 37.5649C16.0555 35.8687 17.5575 35.0145 20.0401 35.028V34.9176C20.0401 34.4761 19.8605 33.7451 18.6757 33.7451C18.0131 33.7451 17.3226 33.953 16.8686 34.2425L16.5371 33.1396C17.0335 32.8351 17.9031 32.5447 18.9649 32.5447C21.1164 32.5447 21.7363 33.9113 21.7363 35.3726V37.8004Z" fill="#003A70"/>
<path d="M22.9098 34.6975C22.9098 33.9246 22.8944 33.2761 22.8543 32.6975H24.3422L24.4253 33.7041H24.4661C24.7555 33.1811 25.4874 32.5448 26.6035 32.5448C27.7769 32.5448 28.9901 33.3037 28.9901 35.4276V39.4135H27.2934V35.6214C27.2934 34.6558 26.9346 33.9246 26.0111 33.9246C25.3353 33.9246 24.8675 34.4065 24.6872 34.9174C24.6332 35.0698 24.6185 35.277 24.6185 35.468V39.4135H22.9098V34.6975Z" fill="#003A70"/>
<path d="M34.6475 35.4962C34.6475 35.3592 34.6334 35.1936 34.6064 35.0556C34.4543 34.3937 33.9171 33.8562 33.1445 33.8562C32.0551 33.8562 31.4486 34.822 31.4486 36.0767C31.4486 37.304 32.0551 38.2015 33.1313 38.2015C33.8199 38.2015 34.4273 37.7321 34.5923 37.0011C34.6334 36.849 34.6475 36.6822 34.6475 36.5031V35.4962ZM36.3433 29.9991V37.5238C36.3433 38.2131 36.3715 38.9585 36.3985 39.4129H34.8817L34.814 38.352H34.7858C34.3859 39.0955 33.5703 39.5646 32.5926 39.5646C30.9933 39.5646 29.7242 38.2015 29.7242 36.1322C29.7107 33.8835 31.1178 32.5448 32.7312 32.5448C33.6543 32.5448 34.3169 32.9314 34.6199 33.4297H34.6475V29.9991H36.3433Z" fill="#003A70"/>
<path d="M37.5425 32.6974H39.255V39.4128H37.5425V32.6974Z" fill="#003A70"/>
<path d="M40.4527 34.8629C40.4527 33.9529 40.4389 33.3038 40.3972 32.698H41.8732L41.9278 33.9793H41.9839C42.3144 33.0279 43.1009 32.698 43.818 32.698C43.9833 32.698 44.0799 32.6694 44.2178 32.698V34.1878C44.0799 34.1596 43.9284 34.132 43.7205 34.132C42.9077 34.132 42.3561 34.6557 42.205 35.4139C42.1774 35.5654 42.1501 35.746 42.1501 35.9398V39.413H40.4527V34.8629Z" fill="#003A70"/>
<path d="M45.0039 32.6974H46.7129V39.4128H45.0039V32.6974Z" fill="#003A70"/>
<path fill-rule="evenodd" clip-rule="evenodd" d="M57.2651 25.6032C56.4213 24.6421 55.5257 25.0761 54.8107 25.4304C54.5113 25.5784 53.4241 26.3022 52.3466 26.8067C51.579 27.1664 50.477 27.0576 49.8728 26.3113C49.8361 26.2661 48.8593 25.0826 48.7558 24.9368C48.1214 24.1413 46.5168 23.4815 44.5995 24.5787C43.5723 25.1733 41.1514 26.5624 40.2464 27.0792C39.6964 27.3599 38.4195 27.4825 37.6982 26.5082C37.6863 26.4922 36.7387 25.3097 36.7007 25.2642C36.6728 25.2322 36.0607 24.3244 34.6963 24.2965C34.4956 24.2915 33.4934 24.2855 32.5141 24.8415C31.2155 25.5844 28.1932 27.3122 28.1932 27.3122C28.191 27.3122 28.191 27.3138 28.191 27.3138C26.9486 28.025 25.9796 28.5772 25.9796 28.5772L27.1236 29.9833C27.6592 30.6472 28.8652 31.1617 29.912 30.5609C29.912 30.5609 33.7784 28.3219 33.7919 28.3157C35.4646 27.3978 36.7553 27.3978 37.6104 27.7396C38.3796 28.0636 39.0482 28.8726 39.0482 28.8726C39.0482 28.8726 39.9228 29.9563 40.0764 30.1457C40.5738 30.7579 41.3963 30.5177 41.3963 30.5177C41.3963 30.5177 41.7002 30.4825 42.1618 30.2097C42.1618 30.2097 45.9059 28.0388 45.9081 28.0382C47.0979 27.3404 48.1891 27.2103 48.7457 27.2611C50.4915 27.4201 51.0343 28.6396 51.7919 29.49C52.2375 29.9915 52.6392 30.2749 53.2541 30.2605C53.6589 30.2514 54.1152 30.0071 54.1826 29.9632L58.6669 27.3746C58.6669 27.3746 58.2075 26.6822 57.2651 25.6032Z" fill="#FFB700"/>
</g>
<defs>
<clipPath id="clip0_1_939">
<rect width="53.3333" height="15.5646" fill="white" transform="translate(5.33334 24)"/>
</clipPath>
</defs>
</svg>
