<?xml version="1.0" encoding="UTF-8"?>
<svg width="199px" height="36px" viewBox="0 0 199 36" version="1.1" xmlns="http://www.w3.org/2000/svg" xmlns:xlink="http://www.w3.org/1999/xlink">
    <title>Group 6</title>
    <g id="🗽-NYC" stroke="none" stroke-width="1" fill="none" fill-rule="evenodd">
        <g id="Group-6" transform="translate(0.9018, 0.15)" fill-rule="nonzero">
            <g id="airestate" transform="translate(45.9293, 0)" fill="#000000">
                <path d="M14.4,34.55 C16.15,34.55 18.05,33.1 19.25,30.9 C19.65,30.15 18.85,29.5 18.25,30.3 C17.55,31.25 16.75,32.1 16.25,32.1 C15.8,32.1 15.65,31.85 15.65,31.25 L15.65,14.8 C15.65,10.85 13.8,8.95 10.4,8.95 C8.25,8.95 6,10 3.6,12.1 C1.3,14.25 0,16.1 0,17.7 C0,18.9 0.7,19.7 2,19.7 C3.4,19.7 4.35,18.5 4.75,16.5 C5.55,12.85 6.75,10.95 8.75,10.95 C10.5,10.95 11.3,11.9 11.3,13.7 L11.3,19.45 C3.35,23.3 0.1,26.25 0.1,29.6 C0.1,32.45 1.9,34.45 5.05,34.45 C7.55,34.45 9.65,33.25 11.35,30.9 L11.35,31.6 C11.35,33.4 12.55,34.55 14.4,34.55 Z M4.7,29.1 C4.7,26.1 6.65,23.7 11.3,21 L11.35,27.4 C11.15,30.2 8.7,32.25 6.9,32.25 C5.5,32.25 4.7,31.1 4.7,29.1 Z" id="Shape"></path>
                <path d="M24.7,6.3 C26.45,6.3 27.6,4.95 27.6,3.1 C27.6,1.4 26.45,0 24.95,0 C23.25,0 22.05,1.35 22.05,3.2 C22.05,4.9 23.25,6.3 24.7,6.3 Z M19.7,13.15 C19.7,13.5 20.05,13.65 20.5,13.7 L21.6,13.8 C22.6,13.9 22.95,14.25 22.95,15.55 L22.95,30.3 C22.95,31.3 22.5,32.05 21.7,32.4 L21.05,32.65 C20.45,32.9 20.25,33.1 20.25,33.45 C20.25,33.95 20.6,34.1 21.25,34.1 L25.1,33.85 L28.95,34.1 C29.6,34.1 29.95,33.95 29.95,33.45 C29.95,33.1 29.75,32.9 29.15,32.65 L28.5,32.4 C27.7,32.05 27.25,31.3 27.25,30.3 L27.25,9.75 C27.25,9.2 27.1,8.85 26.7,8.85 C26.35,8.85 26.15,8.9 25.85,9.2 C24.4,10.65 22.75,11.7 20.4,12.35 C19.9,12.5 19.7,12.75 19.7,13.15 Z" id="Shape"></path>
                <path d="M30.85,13.15 C30.85,13.5 31.2,13.65 31.7,13.7 L32.75,13.8 C33.75,13.9 34.1,14.25 34.1,15.55 L34.1,30.3 C34.1,31.3 33.7,32.05 32.85,32.4 L32.25,32.65 C31.65,32.9 31.4,33.1 31.4,33.45 C31.4,33.95 31.8,34.1 32.4,34.1 L36.15,33.85 L40.35,34.1 C41,34.1 41.45,33.95 41.45,33.45 C41.45,33.1 41.15,32.9 40.5,32.65 L39.85,32.4 C38.9,32.05 38.45,31.3 38.45,30.3 L38.45,16.35 C38.45,14.15 40.7,11.65 41.4,11.65 C41.9,11.65 41.7,12.05 41.7,12.65 C41.7,13.95 42.55,15.35 44.35,15.35 C45.8,15.35 46.95,13.9 46.95,12.1 C46.95,10.25 45.75,8.95 43.75,8.95 C42.4,8.95 40.85,9.85 39.2,11.85 L38.35,12.9 L38.35,9.75 C38.35,9.2 38.2,8.85 37.85,8.85 C37.5,8.85 37.3,8.9 36.95,9.2 C35.3,10.7 33.95,11.7 31.55,12.35 C31.05,12.5 30.85,12.75 30.85,13.15 Z" id="Path"></path>
                <path d="M57.7,34.6 C62,34.6 64.9,31.45 66.3,26.25 C66.55,25.35 65.6,25 65.2,25.95 C63.7,29.75 61.7,32.1 59.2,32.1 C55.45,32.1 52.75,28 52.75,21.85 L52.75,21.5 L64.55,21.5 C65.95,21.5 66.55,20.8 66.55,19.25 C66.5,13.15 63.25,8.95 58.4,8.95 C52.75,8.95 48.2,15 48.2,22.2 C48.2,29.7 52.05,34.6 57.7,34.6 Z M52.85,19.85 C53.25,14.35 55.45,10.55 58.5,10.5 C60.85,10.45 62.45,12.85 62.5,16.65 C62.5,18.9 61.6,19.85 59.35,19.85 L52.85,19.85 Z" id="Shape"></path>
                <path d="M74.55,34.6 C78.75,34.6 82.5,31.9 82.5,27.15 C82.5,24.25 81.2,21.9 78.15,20.05 L74.65,17.95 C73.2,17.1 72,15.75 72,14.15 C72,12.1 73.5,10.5 75.45,10.5 C77.25,10.5 78.1,11.25 79.2,13.55 L80.4,16.1 C80.6,16.45 80.75,16.7 81.05,16.7 C81.4,16.7 81.6,16.45 81.6,16.1 L81.65,11.15 C81.65,10.2 81.15,9.6 79.8,9.35 C78.4,9.05 77.25,8.95 76.2,8.95 C72.7,8.95 68.75,11.4 68.75,15.45 C68.75,18.1 69.85,20.15 72.35,21.7 L76,24 C78.1,25.3 79.2,26.9 79.2,28.9 C79.2,31.25 77.6,33.05 75.6,33.05 C73.75,33.05 72.35,31.75 71.4,29.3 L70.1,25.9 C69.9,25.45 69.7,25.15 69.35,25.15 C68.9,25.15 68.7,25.45 68.7,25.85 L68.7,32.4 C68.7,33.45 69.35,33.95 70.55,34.2 C71.7,34.4 73.2,34.6 74.55,34.6 Z" id="Path"></path>
                <path d="M84.25,10.25 C83.7,10.4 83.5,10.7 83.5,11.1 C83.5,11.5 83.85,11.7 84.35,11.7 L85.8,11.7 C86.75,11.7 87.1,12.15 87.1,13.4 L87.1,30.65 C87.1,33.05 88.6,34.55 91.4,34.55 C94.1,34.55 96.25,31.9 97.75,27.95 C98.05,27.2 97.1,26.75 96.6,27.7 C95.05,30.7 93.75,31.8 92.65,31.8 C91.9,31.8 91.45,31.2 91.45,30.1 L91.45,11.8 L96.3,11.8 C96.95,11.8 97.3,11.45 97.3,10.8 L97.3,10.7 C97.3,10.1 96.95,9.75 96.3,9.75 L91.45,9.75 L91.45,5.2 C91.45,4.65 91.25,4.3 90.9,4.3 C90.5,4.3 90.15,4.5 90,4.9 C88.65,8.3 86.4,9.8 84.25,10.25 Z" id="Path"></path>
                <path d="M112.85,34.55 C114.6,34.55 116.5,33.1 117.7,30.9 C118.1,30.15 117.3,29.5 116.7,30.3 C116,31.25 115.2,32.1 114.7,32.1 C114.25,32.1 114.1,31.85 114.1,31.25 L114.1,14.8 C114.1,10.85 112.25,8.95 108.85,8.95 C106.7,8.95 104.45,10 102.05,12.1 C99.75,14.25 98.45,16.1 98.45,17.7 C98.45,18.9 99.15,19.7 100.45,19.7 C101.85,19.7 102.8,18.5 103.2,16.5 C104,12.85 105.2,10.95 107.2,10.95 C108.95,10.95 109.75,11.9 109.75,13.7 L109.75,19.45 C101.8,23.3 98.55,26.25 98.55,29.6 C98.55,32.45 100.35,34.45 103.5,34.45 C106,34.45 108.1,33.25 109.8,30.9 L109.8,31.6 C109.8,33.4 111,34.55 112.85,34.55 Z M103.15,29.1 C103.15,26.1 105.1,23.7 109.75,21 L109.8,27.4 C109.6,30.2 107.15,32.25 105.35,32.25 C103.95,32.25 103.15,31.1 103.15,29.1 Z" id="Shape"></path>
                <path d="M118.65,10.25 C118.1,10.4 117.9,10.7 117.9,11.1 C117.9,11.5 118.25,11.7 118.75,11.7 L120.2,11.7 C121.15,11.7 121.5,12.15 121.5,13.4 L121.5,30.65 C121.5,33.05 123,34.55 125.8,34.55 C128.5,34.55 130.65,31.9 132.15,27.95 C132.45,27.2 131.5,26.75 131,27.7 C129.45,30.7 128.15,31.8 127.05,31.8 C126.3,31.8 125.85,31.2 125.85,30.1 L125.85,11.8 L130.7,11.8 C131.35,11.8 131.7,11.45 131.7,10.8 L131.7,10.7 C131.7,10.1 131.35,9.75 130.7,9.75 L125.85,9.75 L125.85,5.2 C125.85,4.65 125.65,4.3 125.3,4.3 C124.9,4.3 124.55,4.5 124.4,4.9 C123.05,8.3 120.8,9.8 118.65,10.25 Z" id="Path"></path>
                <path d="M142.9,34.6 C147.2,34.6 150.1,31.45 151.5,26.25 C151.75,25.35 150.8,25 150.4,25.95 C148.9,29.75 146.9,32.1 144.4,32.1 C140.65,32.1 137.95,28 137.95,21.85 L137.95,21.5 L149.75,21.5 C151.15,21.5 151.75,20.8 151.75,19.25 C151.7,13.15 148.45,8.95 143.6,8.95 C137.95,8.95 133.4,15 133.4,22.2 C133.4,29.7 137.25,34.6 142.9,34.6 Z M138.05,19.85 C138.45,14.35 140.65,10.55 143.7,10.5 C146.05,10.45 147.65,12.85 147.7,16.65 C147.7,18.9 146.8,19.85 144.55,19.85 L138.05,19.85 Z" id="Shape"></path>
            </g>
            <path d="M16.2049884,3.0247038 C25.1548876,3.0247038 32.4103246,10.2807377 32.4106587,19.2315856 C32.4106587,28.1822815 25.1554195,35.4379894 16.205307,35.4379894 C7.25531938,35.4379894 0,28.1820097 0,19.2312669 C0,10.2805317 7.2550714,3.0247038 16.2049884,3.0247038 Z M16.2049884,5.22112191 C8.4681709,5.22112191 2.1964181,11.4935287 2.1964181,19.2312669 C2.1964181,26.9690063 8.46841235,33.2415713 16.205307,33.2415713 C23.9423395,33.2415713 30.2142406,26.969265 30.2142406,19.2316265 C30.2139518,11.4937771 23.9418126,5.22112191 16.2049884,5.22112191 Z M27.6074792,16.0175807 C29.3134865,22.3844866 25.5357489,28.9284497 19.1695204,30.6342755 C12.8032528,32.3401118 6.25914852,28.5614334 4.55313599,22.194508 C2.84711297,15.8275434 6.6248076,9.28365465 12.9910947,7.57781315 C19.3573427,5.87198216 25.9014614,9.65063557 27.6074792,16.0175807 Z M13.0000875,24.4219576 L8.39250951,25.6567394 C10.242196,27.8246776 12.9568305,29.1395236 15.8494126,29.2045778 C14.8202686,28.0976425 13.8395667,26.4397129 13.0000875,24.4219576 Z M20.1556306,22.5040992 L14.7553196,23.9519736 C16.1392967,26.9046388 17.7879091,28.7111097 18.8485401,28.4269144 C19.9092455,28.1426993 20.433685,25.7535702 20.1556306,22.5040992 Z M26.0138583,20.9344153 L21.672438,22.0989541 C21.9117939,24.2558883 21.8313069,26.1826775 21.4472582,27.6643369 C23.8566323,26.1533845 25.5045433,23.6922256 26.0138583,20.9344153 Z M10.9590035,17.1023057 L6.00216052,18.4311828 C5.93015487,19.5092875 6.03129729,20.617437 6.32654701,21.7193239 C6.54997317,22.5531617 6.8714715,23.3345361 7.27530468,24.0543598 L12.3467856,22.6951248 C12.10112,21.9799371 11.8730487,21.2322472 11.6657505,20.4586549 C11.3582114,19.310985 11.1224825,18.183483 10.9590035,17.1023057 Z M18.4004315,15.1083117 L12.576853,16.6691125 C12.7205767,17.6206627 12.9272863,18.6225294 13.2024225,19.6492775 C13.4471183,20.5624284 13.7288473,21.4314801 14.0353472,22.2428493 L19.9247637,20.6659177 C19.7844765,19.8097467 19.5938593,18.9159741 19.3490805,18.0025131 C19.0738904,16.9755643 18.7518598,16.00439 18.4004315,15.1083117 Z M24.4707949,13.4828303 L19.8197371,14.7290263 C20.2186772,15.7468844 20.5782254,16.8409393 20.8856905,17.9883331 C21.0930388,18.7621124 21.2648406,19.5250702 21.4016723,20.2695947 L26.1799573,18.9895533 C26.1697838,18.1641932 26.0575161,17.3266839 25.8340682,16.4927647 C25.5388084,15.3908403 25.0722775,14.3805383 24.4707949,13.4828303 Z M11.0772068,10.3307326 L10.9279659,10.4175962 C8.65398793,11.7644758 7.02401542,13.9453821 6.33904334,16.4389071 L10.746372,15.2577536 C10.5977487,13.3377076 10.7070437,11.6368726 11.0772068,10.3307326 Z M14.0801735,9.20672537 L14.0145269,9.22063656 C13.8317413,9.25899564 13.6489633,9.30259189 13.4663582,9.35152077 L13.4095612,9.3659402 C12.580083,9.95796434 12.175435,12.0494637 12.3705142,14.8228293 L17.655998,13.4065019 C16.4590721,10.9501808 15.0898178,9.35384631 14.0801735,9.20672537 Z M16.4196427,9.01053768 L16.5301129,9.12342554 C17.4333737,10.0644111 18.3067967,11.4063135 19.0814521,13.0249829 L23.1827986,11.9258777 C21.3942947,10.159827 18.9802891,9.09587946 16.4196427,9.01053768 Z" id="Combined-Shape" fill="#FFAA4D"></path>
        </g>
    </g>
</svg>