<svg width="64" height="64" viewBox="0 0 64 64" fill="none" xmlns="http://www.w3.org/2000/svg">
<path d="M4 28.1042C6.41023 29.1825 8.478 30.8892 9.99492 33.0158C11.5196 30.8784 13.6005 29.1653 16.0265 28.0879V29.6289C13.9012 30.6951 12.0999 32.3122 10.8103 34.2929C11.0293 34.6781 11.2314 35.0742 11.4156 35.48C12.5129 33.5752 14.1094 31.9943 16.0265 30.9161V32.5489C14.4014 33.6282 13.0849 35.1351 12.2374 36.9091H10.4984C10.349 36.5077 10.1808 36.1155 9.99492 35.7335C9.80901 36.1155 9.64086 36.5077 9.49148 36.9091H7.75241C6.91138 35.1485 5.6083 33.6509 4 32.5733V30.9368C5.90077 32.0145 7.484 33.5873 8.57425 35.48C8.75844 35.0742 8.96053 34.6781 9.17953 34.2929C7.89721 32.3236 6.10945 30.7137 4 29.6473V28.1042Z" fill="#EE2E24"/>
<path d="M4 33.9328C5.02622 34.7424 5.88544 35.7546 6.51693 36.9091H4V33.9328Z" fill="#EE2E24"/>
<path d="M13.4729 36.9091H16.0265V33.904C14.984 34.7184 14.112 35.7409 13.4729 36.9091Z" fill="#EE2E24"/>
<path d="M27.3399 36.8228H25.7558L25.7454 31.4466L23.5985 34.404H22.8377L20.7013 31.4466V36.8228H19.1172V28.9717H20.5137L23.2442 32.6566L25.933 28.9717H27.3191L27.3399 36.8228Z" fill="black"/>
<path d="M28.7604 36.8228V30.64H30.2692V36.8228H28.7604Z" fill="black"/>
<path d="M34.6807 35.3425L35.1184 36.5398C34.7849 36.7901 34.2951 36.9099 33.7949 36.9099C32.4713 36.9099 31.7001 36.2024 31.7001 34.8092V29.0117H33.3259V30.5587H34.7224V31.8648H33.3259V34.7874C33.3259 35.2881 33.5864 35.5602 34.0242 35.5602C34.2639 35.5602 34.5036 35.484 34.6807 35.3425Z" fill="black"/>
<path d="M37.6379 31.1791C38.0339 30.6131 39.1186 30.1816 40.3102 30.7683L39.9252 32.0333C39.6319 31.9049 39.3262 31.8648 39.2012 31.8648C38.3049 31.8648 37.7109 32.3764 37.7109 33.4975V36.8228H36.0851V30.5116H37.6379V31.1791Z" fill="black"/>
<path d="M43.0523 30.5152C44.7615 30.5152 45.5743 31.685 45.5743 33.5714V36.9129H44.0528V36.1837C43.7506 36.717 43.1669 37 42.3436 37C41.0305 37 40.2489 36.2381 40.2489 35.2258C40.2489 34.1918 40.7136 33.2249 42.7501 32.9133L44.0528 32.8399C43.9486 32.1642 43.6255 31.7583 42.7501 31.7583C42.156 31.7583 41.6245 32.0717 41.2181 32.4091L40.6345 31.2227C41.2493 30.7655 42.156 30.5152 43.0523 30.5152ZM42.6202 35.7182C43.1621 35.7182 43.6652 35.4982 44.0528 35.0399V34.0683L43.0785 34.1599C42.3177 34.1599 41.833 34.7578 41.833 35.1496C41.833 35.5741 42.047 35.7182 42.6202 35.7182Z" fill="black"/>
<path d="M56.4617 33.5549C56.4617 33.6855 56.3988 34.1839 56.3883 34.3254H51.8809C52.0372 35.0547 52.7288 35.7182 53.5834 35.7182C54.1774 35.7182 55.05 35.6266 55.6734 35.2599L55.9484 36.4882C54.83 36.9282 54.576 36.9832 53.5651 36.9832C51.6266 36.9832 50.4242 35.6364 50.4242 33.8949C50.3751 31.8683 51.7826 30.4933 53.4917 30.4933C55.2517 30.4566 56.4617 31.6719 56.4617 33.5549ZM53.4917 31.7399C52.6301 31.7766 51.9956 32.4372 51.8809 33.1883L55.105 33.1516C54.8484 31.9599 54.2212 31.7399 53.4917 31.7399Z" fill="black"/>
<path d="M57.6225 36.8228V28H59.2483V36.8228H57.6225Z" fill="black"/>
<path d="M49.7808 35.3425L50.2185 36.5398C49.885 36.7902 49.3951 36.9099 48.8949 36.9099C47.5714 36.9099 46.8001 36.2024 46.8001 34.8092V29.0117H48.4259V30.5587H49.8224V31.8648H48.4259V34.7874C48.4259 35.2881 48.6865 35.5602 49.1242 35.5602C49.3639 35.5602 49.6036 35.484 49.7808 35.3425Z" fill="black"/>
<path d="M29.5391 28.0829L30.4645 29.0083L29.5391 29.9337L28.6137 29.0083L29.5391 28.0829Z" fill="black"/>
</svg>
