<svg width="377" height="93" viewBox="0 0 377 93" fill="none" xmlns="http://www.w3.org/2000/svg">
<g clip-path="url(#clip0_1463_28157)">
<path d="M42.8 53.6C48.7647 53.6 53.6 48.7647 53.6 42.8C53.6 36.8353 48.7647 32 42.8 32C36.8353 32 32 36.8353 32 42.8C32 48.7647 36.8353 53.6 42.8 53.6Z" fill="#09B8A7"/>
<path d="M71.2 11.6998C71.2 14.7998 70 17.7998 67.8 19.9998L63.7 24.0998C61.3 26.4998 57.7 27.3998 54.5 26.4998C51.9 25.6998 48.7 24.7998 45.4 23.7998C40 22.1998 35.8 23.8998 34 24.7998C33.4 25.0998 32.7 24.9998 32.3 24.5998L32.2 24.4998C31.6 23.8998 31.6 22.9998 32.2 22.3998L38 16.5998L48.6 5.99981L51.1 3.49981C52.1 2.49981 53.3 1.59981 54.6 0.99981C59.2 -1.10019 64.4 0.0998101 67.7 3.39981C70 5.59981 71.2 8.59981 71.2 11.6998Z" fill="#09B8A7"/>
<path d="M73.9 71.1999C70.8 71.1999 67.7999 69.9999 65.5999 67.7999L60.7999 62.9999C58.6999 60.8999 57.9999 57.8999 58.7999 55.1999C59.5999 52.4999 60.6 48.8999 61.7 45.2999C63.3 39.8999 61.6 35.6999 60.7 33.8999C60.4 33.2999 60.5 32.5999 60.9 32.1999L61 32.0999C61.6 31.4999 62.4999 31.4999 63.0999 32.0999L68.9 37.8999L79.5999 48.5999L82.0999 51.0999C83.0999 52.0999 83.9999 53.2999 84.5999 54.5999C86.6999 59.1999 85.4999 64.3999 82.1999 67.6999C79.9999 69.9999 77 71.1999 73.9 71.1999Z" fill="#09B8A7"/>
<path d="M14.3999 73.8997C14.3999 70.7997 15.5999 67.7997 17.7999 65.5997L21.6999 61.6997C24.2999 59.0997 27.9999 58.1997 31.4999 59.1997C33.9999 59.8997 37.0999 60.8997 40.1999 61.7997C45.5999 63.3997 49.7999 61.6997 51.5999 60.7997C52.1999 60.4997 52.8999 60.5997 53.2999 60.9997L53.3999 61.0997C53.9999 61.6997 53.9999 62.5997 53.3999 63.1997L47.5999 68.9997L36.9999 79.5997L34.4999 82.0997C33.4999 83.0997 32.2999 83.9997 30.9999 84.5997C26.3999 86.6997 21.1999 85.4997 17.8999 82.1997C15.5999 79.9997 14.3999 76.9997 14.3999 73.8997Z" fill="#09B8A7"/>
<path d="M11.6998 14.3999C14.7998 14.3999 17.7998 15.5999 19.9998 17.7999L25.2998 23.0999C26.9998 24.7999 27.6998 27.2999 26.9998 29.6999C26.1998 32.4999 24.9998 36.3999 23.8998 40.2999C22.2998 45.6999 23.9998 49.8999 24.8998 51.6999C25.1998 52.2999 25.0998 52.9999 24.6998 53.3999L24.5998 53.4999C23.9998 54.0999 23.0998 54.0999 22.4998 53.4999L16.6998 47.6999L5.99981 36.9999L3.49981 34.4999C2.49981 33.4999 1.59981 32.2999 0.99981 30.9999C-1.10019 26.3999 0.0998101 21.1999 3.39981 17.8999C5.59981 15.5999 8.59981 14.3999 11.6998 14.3999Z" fill="#09B8A7"/>
<path d="M234.9 21.8998C233.6 19.4998 231.7 17.5998 229.2 16.2998C226.7 14.8998 223.7 14.2998 220.1 14.2998H208.1C205.5 14.2998 203.4 16.3998 203.4 18.9998V56.1998C203.4 58.9998 205.6 61.1998 208.4 61.1998C211.1 61.1998 213.3 58.9998 213.3 56.2998V48.6998C213.3 47.1998 214.5 45.9998 216 45.9998H219.8C223.4 45.9998 226.5 45.2998 229 43.9998C231.5 42.6998 233.5 40.7998 234.8 38.3998C236.1 35.9998 236.8 33.2998 236.8 30.0998C236.8 26.8998 236.2 24.1998 234.9 21.8998ZM225.7 34.1998C225.1 35.3998 224.1 36.2998 222.9 36.9998C221.7 37.6998 220.1 37.9998 218.2 37.9998H215.2C214.1 37.9998 213.3 37.0998 213.3 36.0998V23.6998C213.3 22.9998 213.9 22.3998 214.6 22.3998H218.1C220 22.3998 221.6 22.6998 222.9 23.3998C224.2 23.9998 225.1 24.9998 225.7 26.0998C226.3 27.2998 226.6 28.5998 226.6 30.1998C226.6 31.6998 226.3 32.9998 225.7 34.1998Z" fill="#1A1A1A"/>
<path d="M136.3 46.1997C136.3 56.0997 131.3 60.9997 118.7 60.9997C112.3 60.9997 108.9 59.9997 105.9 58.0997C104.1 56.9997 102.8 55.3997 102 53.4997C100.6 50.3997 103 46.8997 106.4 46.8997H107.2C109 46.8997 110.5 47.9997 111.5 49.4997C112.4 51.0997 114.5 51.8997 118.6 51.8997C121.7 51.8997 122.6 51.5997 124 50.8997C125.7 50.0997 126.5 48.7997 126.5 46.8997C126.5 44.5997 125.7 43.2997 124 42.6997C123.3 42.3997 122.3 42.1997 118.4 41.8997C112.2 41.4997 109.1 40.7997 106.9 39.6997C103.1 37.7997 101.1 33.9997 101.1 28.3997C101.1 22.9997 102.7 19.2997 105.9 17.0997C108.8 15.1997 112.1 14.1997 118.4 14.1997C124.7 14.1997 128.1 15.1997 131.1 17.0997C132.8 18.1997 134.1 19.6997 135 21.5997C136.4 24.6997 134 28.1997 130.6 28.1997H130C128.2 28.1997 126.5 27.2997 125.7 25.6997C124.8 23.8997 122.6 22.9997 118.1 22.9997C114.7 22.9997 113.6 23.3997 112.4 24.2997C111.4 24.9997 111 26.0997 111 27.7997C111 29.7997 111.8 31.0997 113.5 31.5997C114.4 31.8997 115.3 32.1997 118.7 32.2997C125.2 32.5997 128.3 33.2997 130.4 34.3997C134.3 36.3997 136.3 40.2997 136.3 46.1997Z" fill="#1A1A1A"/>
<path d="M146.6 60.8998C143.8 60.8998 141.5 58.5998 141.5 55.7998V19.3998C141.5 16.5998 143.8 14.2998 146.6 14.2998C149.4 14.2998 151.7 16.5998 151.7 19.3998V55.7998C151.7 58.5998 149.5 60.8998 146.6 60.8998Z" fill="#1A1A1A"/>
<path d="M195.1 46.9998L184.5 19.0998C183.4 16.1998 180.6 14.2998 177.5 14.2998C174.4 14.2998 171.6 16.1998 170.6 19.0998L166 31.1998L162.5 40.4998L157.3 54.0998C156.1 57.3998 158.5 60.8998 162 60.8998C164.1 60.8998 166 59.5998 166.7 57.5998L168.8 51.7998C169.1 50.8998 169.9 50.3998 170.8 50.3998H184.2C185.1 50.3998 185.9 50.9998 186.2 51.7998L186.9 53.6998L188.3 57.5998C189 59.5998 190.9 60.9998 193 60.9998C196.5 60.9998 199 57.4998 197.7 54.1998L195.1 46.9998ZM174.1 41.3998C173.2 41.3998 172.6 40.5998 172.9 39.6998L174.1 36.1998L176.6 29.1998C176.9 28.3998 178 28.3998 178.3 29.1998L181.9 39.5998C182.2 40.3998 181.6 41.2998 180.7 41.2998H174.1V41.3998Z" fill="#1A1A1A"/>
<path d="M249.6 92.2996C248.6 92.2996 247.7 92.0996 247 91.6996C246.3 91.2996 245.7 90.6996 245.3 89.8996C244.9 89.0996 244.7 88.1996 244.7 87.1996C244.7 86.1996 244.9 85.2996 245.3 84.4996C245.7 83.6996 246.3 83.0996 247 82.6996C247.7 82.2996 248.6 82.0996 249.6 82.0996C250.6 82.0996 251.5 82.2996 252.2 82.6996C252.9 83.0996 253.5 83.6996 253.9 84.4996C254.3 85.2996 254.5 86.1996 254.5 87.1996C254.5 88.1996 254.3 89.0996 253.9 89.8996C253.5 90.6996 252.9 91.2996 252.2 91.6996C251.5 92.0996 250.6 92.2996 249.6 92.2996ZM249.6 90.1996C250.1 90.1996 250.4 90.0996 250.8 89.7996C251.1 89.4996 251.3 89.1996 251.5 88.6996C251.7 88.1996 251.7 87.6996 251.7 87.0996C251.7 86.4996 251.6 85.9996 251.5 85.4996C251.4 84.9996 251.1 84.6996 250.8 84.3996C250.5 84.0996 250.1 83.9996 249.6 83.9996C249.1 83.9996 248.7 84.0996 248.4 84.3996C248.1 84.6996 247.8 84.9996 247.7 85.4996C247.6 85.9996 247.5 86.4996 247.5 87.0996C247.5 87.6996 247.6 88.1996 247.7 88.6996C247.9 89.1996 248.1 89.4996 248.4 89.7996C248.8 90.0996 249.2 90.1996 249.6 90.1996Z" fill="#606060"/>
<path d="M259.1 78.7998V92.0998H256.3V78.7998H259.1Z" fill="#606060"/>
<path d="M265.9 92.3C264.9 92.3 264 92.1 263.2 91.7C262.5 91.3 261.9 90.7 261.5 89.9C261.1 89.1 260.9 88.2 260.9 87.2C260.9 86.2 261.1 85.3 261.5 84.5C261.9 83.7 262.5 83.1 263.2 82.7C263.9 82.3 264.8 82 265.8 82C266.5 82 267.1 82.1 267.6 82.3C268.2 82.5 268.7 82.8 269.1 83.2C269.5 83.6 269.9 84.1 270.1 84.8C270.3 85.4 270.5 86.2 270.5 87V87.8H262V86.1H267.8C267.8 85.7 267.7 85.3 267.5 85C267.3 84.7 267.1 84.5 266.8 84.3C266.5 84.1 266.1 84 265.7 84C265.3 84 264.9 84.1 264.6 84.3C264.3 84.5 264 84.8 263.8 85.1C263.6 85.4 263.5 85.8 263.5 86.2V87.8C263.5 88.3 263.6 88.7 263.8 89.1C264 89.5 264.2 89.7 264.6 89.9C264.9 90.1 265.3 90.2 265.8 90.2C266.1 90.2 266.4 90.2 266.6 90.1C266.8 90 267.1 89.9 267.3 89.7C267.5 89.5 267.6 89.3 267.7 89.1L270.3 89.3C270.2 89.9 269.9 90.5 269.5 90.9C269.1 91.4 268.6 91.7 268 92C267.4 92.2 266.7 92.3 265.9 92.3Z" fill="#606060"/>
<path d="M275 86.3998V92.1998H272.2V78.7998H274.9V83.8998H275C275.2 83.2998 275.6 82.7998 276.1 82.4998C276.6 82.1998 277.2 81.9998 278 81.9998C278.7 81.9998 279.3 82.1998 279.8 82.4998C280.3 82.7998 280.7 83.1998 281 83.7998C281.3 84.3998 281.4 84.9998 281.4 85.7998V92.1998H278.6V86.2998C278.6 85.6998 278.4 85.1998 278.1 84.8998C277.8 84.5998 277.3 84.3998 276.8 84.3998C276.4 84.3998 276.1 84.4998 275.8 84.5998C275.5 84.7998 275.3 84.9998 275.1 85.2998C275.1 85.5998 275 85.8998 275 86.3998Z" fill="#606060"/>
<path d="M288 92.1998V78.7998H290.799V84.6998H291L295.799 78.7998H299.2L294.299 84.7998L299.299 92.1998H295.9L292.299 86.6998L290.9 88.3998V92.1998H288Z" fill="#606060"/>
<path d="M304.4 92.3C303.4 92.3 302.5 92.1 301.7 91.7C301 91.3 300.4 90.7 300 89.9C299.6 89.1 299.4 88.2 299.4 87.2C299.4 86.2 299.6 85.3 300 84.5C300.4 83.7 301 83.1 301.7 82.7C302.4 82.3 303.3 82 304.3 82C305 82 305.6 82.1 306.1 82.3C306.7 82.5 307.2 82.8 307.6 83.2C308 83.6 308.4 84.1 308.6 84.8C308.8 85.4 309 86.2 309 87V87.8H300.6V86.1H306.4C306.4 85.7 306.3 85.3 306.1 85C305.9 84.7 305.7 84.5 305.4 84.3C305.1 84.1 304.7 84 304.3 84C303.9 84 303.5 84.1 303.2 84.3C302.9 84.5 302.6 84.8 302.4 85.1C302.2 85.4 302.1 85.8 302.1 86.2V87.8C302.1 88.3 302.2 88.7 302.4 89.1C302.6 89.5 302.8 89.7 303.2 89.9C303.5 90.1 303.9 90.2 304.4 90.2C304.7 90.2 305 90.2 305.2 90.1C305.4 90 305.7 89.9 305.9 89.7C306.1 89.5 306.2 89.3 306.3 89.1L308.9 89.3C308.8 89.9 308.5 90.5 308.1 90.9C307.7 91.4 307.2 91.7 306.6 92C306 92.2 305.2 92.3 304.4 92.3Z" fill="#606060"/>
<path d="M310.8 92.1996V82.1996H313.4V83.9996H313.5C313.7 83.3996 314.1 82.9996 314.5 82.5996C314.9 82.1996 315.6 82.0996 316.2 82.0996C316.9 82.0996 317.5 82.2996 318 82.5996C318.5 82.8996 318.8 83.3996 319 83.9996H319.1C319.3 83.3996 319.7 82.9996 320.2 82.5996C320.7 82.1996 321.4 82.0996 322.1 82.0996C323 82.0996 323.8 82.3996 324.4 82.9996C325 83.5996 325.3 84.3996 325.3 85.4996V92.1996H322.5V85.9996C322.5 85.3996 322.4 84.9996 322.1 84.7996C321.8 84.4996 321.4 84.3996 321 84.3996C320.5 84.3996 320.1 84.5996 319.8 84.8996C319.5 85.1996 319.4 85.5996 319.4 86.1996V92.2996H316.7V86.0996C316.7 85.5996 316.6 85.1996 316.3 84.8996C316 84.5996 315.7 84.4996 315.2 84.4996C314.9 84.4996 314.6 84.5996 314.4 84.6996C314.2 84.8996 314 85.0996 313.8 85.2996C313.6 85.4996 313.6 85.8996 313.6 86.2996V92.2996H310.8V92.1996Z" fill="#606060"/>
<path d="M330.299 86.3996V92.1996H327.5V82.1996H330.1V83.9996H330.2C330.4 83.3996 330.799 82.9996 331.299 82.5996C331.799 82.2996 332.5 82.0996 333.2 82.0996C333.9 82.0996 334.5 82.2996 335 82.5996C335.5 82.8996 335.9 83.2996 336.2 83.8996C336.5 84.4996 336.6 85.0996 336.6 85.8996V92.2996H334V86.3996C334 85.7996 333.8 85.2996 333.5 84.9996C333.2 84.6996 332.7 84.4996 332.2 84.4996C331.8 84.4996 331.5 84.5996 331.2 84.6996C330.9 84.8996 330.7 85.0996 330.5 85.3996C330.4 85.5996 330.299 85.8996 330.299 86.3996Z" fill="#606060"/>
<path d="M341.799 92.2996C341.199 92.2996 340.6 92.1996 340.1 91.9996C339.6 91.7996 339.2 91.3996 338.9 90.9996C338.6 90.5996 338.5 89.9996 338.5 89.3996C338.5 88.7996 338.599 88.3996 338.799 87.9996C338.999 87.5996 339.3 87.2996 339.6 87.0996C340 86.8996 340.399 86.6996 340.799 86.5996C341.199 86.4996 341.7 86.3996 342.2 86.3996C342.8 86.2996 343.2 86.2996 343.6 86.1996C344 86.0996 344.2 86.0996 344.4 85.9996C344.6 85.8996 344.6 85.6996 344.6 85.4996C344.6 85.0996 344.5 84.7996 344.2 84.4996C343.9 84.2996 343.6 84.1996 343.1 84.1996C342.6 84.1996 342.2 84.2996 341.9 84.4996C341.6 84.6996 341.399 84.9996 341.299 85.2996L338.7 85.0996C338.8 84.4996 339.1 83.9996 339.5 83.4996C339.9 83.0996 340.4 82.6996 341 82.4996C341.6 82.2996 342.3 82.0996 343.1 82.0996C343.7 82.0996 344.2 82.1996 344.7 82.2996C345.2 82.3996 345.7 82.5996 346.1 82.8996C346.5 83.1996 346.8 83.4996 347 83.9996C347.2 84.3996 347.299 84.8996 347.299 85.4996V92.1996H344.7V90.7996H344.6C344.4 91.0996 344.2 91.3996 344 91.5996C343.8 91.7996 343.4 91.9996 343 92.1996C342.6 92.3996 342.299 92.2996 341.799 92.2996ZM342.6 90.3996C343 90.3996 343.4 90.2996 343.7 90.1996C344 89.9996 344.3 89.7996 344.4 89.4996C344.6 89.1996 344.7 88.8996 344.7 88.5996V87.4996C344.6 87.5996 344.499 87.5996 344.299 87.6996C344.199 87.6996 343.999 87.7996 343.799 87.7996C343.599 87.7996 343.4 87.8996 343.2 87.8996C343 87.8996 342.8 87.9996 342.7 87.9996C342.4 87.9996 342.099 88.0996 341.799 88.1996C341.599 88.2996 341.4 88.3996 341.2 88.5996C341 88.7996 341 88.9996 341 89.2996C341 89.6996 341.1 89.9996 341.4 90.1996C341.7 90.3996 342.1 90.3996 342.6 90.3996Z" fill="#606060"/>
<path d="M349.5 92.1998V78.7998H352.299V92.0998H349.5V92.1998ZM352.1 89.2998V85.9998H352.5L355.7 82.1998H358.9L354.6 87.1998H353.9L352.1 89.2998ZM355.799 92.1998L352.9 87.7998L354.7 85.7998L359 92.0998H355.799V92.1998Z" fill="#606060"/>
<path d="M364.3 92.3C363.3 92.3 362.4 92.1 361.6 91.7C360.9 91.3 360.3 90.7 359.9 89.9C359.5 89.1 359.3 88.2 359.3 87.2C359.3 86.2 359.5 85.3 359.9 84.5C360.3 83.7 360.9 83.1 361.6 82.7C362.3 82.3 363.2 82 364.2 82C364.9 82 365.5 82.1 366 82.3C366.6 82.5 367.1 82.8 367.5 83.2C367.9 83.6 368.3 84.1 368.5 84.8C368.7 85.4 368.9 86.2 368.9 87V87.8H360.5V86.1H366.3C366.3 85.7 366.2 85.3 366 85C365.8 84.7 365.6 84.5 365.3 84.3C365 84.1 364.6 84 364.2 84C363.8 84 363.4 84.1 363.1 84.3C362.8 84.5 362.5 84.8 362.3 85.1C362.1 85.4 362 85.8 362 86.2V87.8C362 88.3 362.1 88.7 362.3 89.1C362.5 89.5 362.7 89.7 363.1 89.9C363.4 90.1 363.8 90.2 364.3 90.2C364.6 90.2 364.9 90.2 365.1 90.1C365.3 90 365.6 89.9 365.8 89.7C366 89.5 366.1 89.3 366.2 89.1L368.8 89.3C368.7 89.9 368.4 90.5 368 90.9C367.6 91.4 367.1 91.7 366.5 92C365.9 92.2 365.2 92.3 364.3 92.3Z" fill="#606060"/>
<path d="M370.7 92.2V82.2H373.4V83.9H373.5C373.7 83.3 374 82.8 374.4 82.5C374.8 82.2 375.3 82 375.9 82C376 82 376.2 82 376.3 82C376.5 82 376.6 82 376.7 82.1V84.6C376.6 84.6 376.4 84.5 376.2 84.5C376 84.5 375.8 84.5 375.6 84.5C375.2 84.5 374.8 84.6 374.5 84.8C374.2 85 373.9 85.2 373.7 85.5C373.5 85.8 373.4 86.2 373.4 86.6V92.3H370.7V92.2Z" fill="#606060"/>
<path d="M244.9 60.8999V13.8999H250.3V60.8999H244.9ZM250 47.9999L249.9 41.2999H251L266.4 25.5999H273.1L256.7 42.1999H256.2L250 47.9999ZM267.3 60.8999L253.5 43.4999L257.4 39.6999L274.2 60.8999H267.3Z" fill="#1A1A1A"/>
<path d="M291.9 61.5997C288.5 61.5997 285.6 60.7997 283.1 59.2997C280.6 57.7997 278.8 55.6997 277.4 52.9997C276.1 50.2997 275.4 47.0997 275.4 43.4997C275.4 39.8997 276.1 36.6997 277.4 33.9997C278.7 31.1997 280.6 29.0997 282.9 27.4997C285.3 25.8997 288.1 25.1997 291.2 25.1997C293 25.1997 294.8 25.4997 296.6 26.0997C298.4 26.6997 300 27.6997 301.5 29.0997C303 30.4997 304.1 32.2997 305 34.4997C305.9 36.6997 306.3 39.4997 306.3 42.7997V45.0997H279.2V40.3997H301C301 38.3997 300.6 36.5997 299.8 35.0997C299 33.4997 297.9 32.2997 296.5 31.3997C295.1 30.4997 293.4 29.9997 291.4 29.9997C289.2 29.9997 287.4 30.4997 285.8 31.5997C284.2 32.6997 283 33.9997 282.2 35.6997C281.4 37.3997 280.9 39.1997 280.9 41.1997V44.2997C280.9 46.9997 281.4 49.1997 282.3 51.0997C283.2 52.8997 284.5 54.2997 286.2 55.2997C287.9 56.2997 289.8 56.6997 292 56.6997C293.4 56.6997 294.7 56.4997 295.9 56.0997C297.1 55.6997 298.1 55.0997 298.9 54.2997C299.7 53.4997 300.4 52.4997 300.8 51.1997L306 52.6997C305.4 54.4997 304.5 55.9997 303.2 57.3997C301.9 58.6997 300.3 59.7997 298.4 60.4997C296.5 61.1997 294.3 61.5997 291.9 61.5997Z" fill="#1A1A1A"/>
<path d="M313.4 60.8997V25.5997H318.6V30.9997H319C319.6 29.2997 320.8 27.7997 322.5 26.7997C324.2 25.6997 326.1 25.1997 328.2 25.1997C328.6 25.1997 329.1 25.1997 329.7 25.1997C330.3 25.1997 330.7 25.1997 331.1 25.2997V30.7997C330.9 30.7997 330.5 30.6997 329.9 30.5997C329.3 30.4997 328.6 30.4997 327.8 30.4997C326.1 30.4997 324.6 30.8997 323.2 31.5997C321.9 32.2997 320.8 33.2997 320 34.4997C319.2 35.6997 318.8 37.1997 318.8 38.7997V61.0997H313.4V60.8997Z" fill="#1A1A1A"/>
<path d="M336 25.5999H341.4V63.3999C341.4 65.5999 341 67.4999 340.3 68.9999C339.6 70.5999 338.4 71.7999 337 72.6999C335.5 73.5999 333.6 73.9999 331.4 73.9999C331.2 73.9999 331 73.9999 330.9 73.9999C330.7 73.9999 330.5 73.9999 330.3 73.9999V68.9999C330.5 68.9999 330.7 68.9999 330.8 68.9999C330.9 68.9999 331.1 68.9999 331.3 68.9999C333 68.9999 334.2 68.4999 334.9 67.4999C335.6 66.4999 336 65.1999 336 63.3999V25.5999ZM338.6 19.7999C337.5 19.7999 336.6 19.3999 335.9 18.6999C335.1 17.9999 334.8 17.0999 334.8 16.0999C334.8 15.0999 335.2 14.1999 335.9 13.4999C336.7 12.7999 337.6 12.3999 338.6 12.3999C339.6 12.3999 340.6 12.7999 341.3 13.4999C342.1 14.1999 342.4 15.0999 342.4 16.0999C342.4 17.0999 342 17.9999 341.3 18.6999C340.6 19.3999 339.7 19.7999 338.6 19.7999Z" fill="#1A1A1A"/>
<path d="M360.2 61.6997C358 61.6997 355.9 61.2997 354.1 60.3997C352.3 59.5997 350.8 58.2997 349.8 56.6997C348.7 55.0997 348.2 53.0997 348.2 50.7997C348.2 48.7997 348.6 47.0997 349.4 45.8997C350.2 44.5997 351.3 43.6997 352.6 42.8997C353.9 42.1997 355.4 41.5997 357 41.2997C358.6 40.9997 360.2 40.6997 361.9 40.3997C364 40.0997 365.8 39.8997 367.1 39.7997C368.4 39.6997 369.4 39.3997 370 39.0997C370.6 38.6997 370.9 38.0997 370.9 37.2997V37.0997C370.9 34.7997 370.3 33.0997 369.1 31.7997C367.9 30.4997 366 29.8997 363.5 29.8997C360.9 29.8997 358.9 30.4997 357.4 31.5997C355.9 32.6997 354.9 33.8997 354.3 35.1997L349.2 33.3997C350.1 31.2997 351.3 29.5997 352.9 28.3997C354.4 27.1997 356.1 26.3997 357.9 25.8997C359.7 25.3997 361.5 25.1997 363.3 25.1997C364.4 25.1997 365.7 25.2997 367.2 25.5997C368.7 25.8997 370.1 26.3997 371.5 27.1997C372.9 27.9997 374 29.2997 375 30.8997C375.9 32.5997 376.4 34.7997 376.4 37.5997V60.7997H371V55.9997H370.7C370.3 56.7997 369.7 57.5997 368.9 58.4997C368.1 59.3997 366.9 60.0997 365.5 60.6997C364.1 61.2997 362.3 61.6997 360.2 61.6997ZM361 56.7997C363.1 56.7997 364.9 56.3997 366.4 55.4997C367.9 54.5997 369 53.5997 369.7 52.1997C370.5 50.8997 370.8 49.4997 370.8 47.9997V42.9997C370.6 43.2997 370.1 43.4997 369.3 43.6997C368.5 43.8997 367.6 44.0997 366.6 44.2997C365.6 44.4997 364.6 44.5997 363.7 44.6997C362.8 44.7997 362 44.8997 361.4 44.9997C360 45.1997 358.7 45.4997 357.5 45.8997C356.3 46.2997 355.3 46.8997 354.6 47.6997C353.9 48.4997 353.5 49.5997 353.5 50.9997C353.5 52.8997 354.2 54.2997 355.6 55.2997C357 56.2997 358.9 56.7997 361 56.7997Z" fill="#1A1A1A"/>
</g>
<defs>
<clipPath id="clip0_1463_28157">
<rect width="376.8" height="92.3" fill="white"/>
</clipPath>
</defs>
</svg>
